<?xml version="1.0"?>
<svg xmlns="http://www.w3.org/2000/svg" xmlns:xlink="http://www.w3.org/1999/xlink" xmlns:svgjs="http://svgjs.com/svgjs" version="1.1" width="512" height="512" x="0" y="0" viewBox="0 0 512 512" style="enable-background:new 0 0 512 512" xml:space="preserve" class=""><g>
<g xmlns="http://www.w3.org/2000/svg">
	<g>
		<path d="M504.396,58.278H7.604C3.405,58.278,0,61.682,0,65.882v380.237c0,4.199,3.405,7.604,7.604,7.604h496.792    c4.2,0,7.604-3.405,7.604-7.604V65.882C512,61.682,508.596,58.278,504.396,58.278z M496.792,438.514H42.585v-76.111    c0-4.199-3.405-7.604-7.604-7.604s-7.604,3.405-7.604,7.604v76.111H15.208V73.486h12.169v263.571c0,4.199,3.405,7.604,7.604,7.604    s7.604-3.405,7.604-7.604V73.486h454.207V438.514z" fill="#f6aa7d" data-original="#000000" style="" class=""/>
	</g>
</g>
<g xmlns="http://www.w3.org/2000/svg">
	<g>
		<path d="M467.897,94.777h-94.706c-4.2,0-7.604,3.405-7.604,7.604s3.404,7.604,7.604,7.604h87.102v292.031H79.084V109.985h268.76    c4.2,0,7.604-3.405,7.604-7.604s-3.404-7.604-7.604-7.604H71.48c-4.199,0-7.604,3.405-7.604,7.604v307.239    c0,4.199,3.405,7.604,7.604,7.604h396.417c4.2,0,7.604-3.405,7.604-7.604V102.381C475.501,98.181,472.097,94.777,467.897,94.777z" fill="#f6aa7d" data-original="#000000" style="" class=""/>
	</g>
</g>
<g xmlns="http://www.w3.org/2000/svg">
	<g>
		<path d="M446.388,250.596c-1.372-2.902-4.426-4.637-7.612-4.321l-53.038,5.158l50.952-75.457c1.92-2.844,1.698-6.621-0.54-9.219    c-2.239-2.599-5.941-3.378-9.037-1.9l-78.341,37.389v-54.86c0-2.492-1.221-4.826-3.269-6.247    c-2.048-1.421-4.663-1.749-6.996-0.876l-79.57,29.719l-32.028-32.028c-2.07-2.07-5.145-2.766-7.904-1.796    c-2.761,0.973-4.717,3.444-5.032,6.355l-6.847,63.331l-83.132-48.794c-2.859-1.677-6.476-1.31-8.938,0.908    c-2.463,2.219-3.205,5.778-1.833,8.796l43.443,95.576l-68.258,68.257c-2.365,2.365-2.907,5.997-1.336,8.949    c1.571,2.952,4.885,4.532,8.17,3.891l74.076-14.454v29.296c0,2.9,1.65,5.548,4.252,6.825c1.063,0.522,2.209,0.779,3.351,0.779    c1.653,0,3.293-0.538,4.651-1.587l72.941-56.363l36.951,49.807c1.318,1.775,3.343,2.891,5.549,3.053    c2.211,0.161,4.373-0.644,5.935-2.207l24.21-24.21l95.057,27.159c3.333,0.951,6.886-0.469,8.642-3.455    c1.757-2.986,1.273-6.783-1.176-9.232l-37.206-37.206l52.414-52.414C447.158,256.95,447.758,253.499,446.388,250.596z     M376.345,306.255c-2.97,2.97-2.97,7.784,0,10.753l21.832,21.833l-71.143-20.327c-2.656-0.759-5.513-0.018-7.466,1.934    l-21.142,21.142l-36.321-48.957c-1.217-1.64-3.043-2.722-5.065-3.001c-2.03-0.282-4.075,0.267-5.691,1.516l-66.825,51.636v-23.042    c0-2.272-1.016-4.424-2.769-5.869c-1.373-1.13-3.085-1.735-4.835-1.735c-0.485,0-0.972,0.047-1.457,0.141l-58.694,11.453    l54.374-54.374c2.242-2.241,2.857-5.638,1.545-8.524l-35.688-78.513l72.568,42.594c2.225,1.307,4.962,1.395,7.266,0.234    c2.305-1.16,3.865-3.41,4.142-5.976l6.404-59.237l24.256,24.256c2.107,2.106,5.248,2.788,8.037,1.747l73.886-27.596V214.3    c0,2.611,1.339,5.039,3.547,6.431c2.208,1.394,4.976,1.556,7.331,0.431l64.012-30.551l-44.355,65.696    c-1.648,2.441-1.739,5.614-0.232,8.144c1.506,2.532,4.343,3.964,7.269,3.679l48.005-4.668L376.345,306.255z" fill="#f6aa7d" data-original="#000000" style="" class=""/>
	</g>
</g>
<g xmlns="http://www.w3.org/2000/svg">
</g>
<g xmlns="http://www.w3.org/2000/svg">
</g>
<g xmlns="http://www.w3.org/2000/svg">
</g>
<g xmlns="http://www.w3.org/2000/svg">
</g>
<g xmlns="http://www.w3.org/2000/svg">
</g>
<g xmlns="http://www.w3.org/2000/svg">
</g>
<g xmlns="http://www.w3.org/2000/svg">
</g>
<g xmlns="http://www.w3.org/2000/svg">
</g>
<g xmlns="http://www.w3.org/2000/svg">
</g>
<g xmlns="http://www.w3.org/2000/svg">
</g>
<g xmlns="http://www.w3.org/2000/svg">
</g>
<g xmlns="http://www.w3.org/2000/svg">
</g>
<g xmlns="http://www.w3.org/2000/svg">
</g>
<g xmlns="http://www.w3.org/2000/svg">
</g>
<g xmlns="http://www.w3.org/2000/svg">
</g>
</g></svg>
